<mxfile host="app.diagrams.net" agent="Mozilla/5.0 (Macintosh; Intel Mac OS X 10_15_7) AppleWebKit/537.36 (KHTML, like Gecko) Chrome/130.0.0.0 Safari/537.36" version="24.8.4">
  <diagram id="C5RBs43oDa-KdzZeNtuy" name="Page-1">
    <mxGraphModel grid="1" page="1" gridSize="10" guides="1" tooltips="1" connect="1" arrows="1" fold="1" pageScale="1" pageWidth="827" pageHeight="1169" math="0" shadow="0">
      <root>
        <mxCell id="WIyWlLk6GJQsqaUBKTNV-0" />
        <mxCell id="WIyWlLk6GJQsqaUBKTNV-1" parent="WIyWlLk6GJQsqaUBKTNV-0" />
        <mxCell id="va2_-kU2H1jiuco8N1ax-3" value="BaseController" style="rounded=0;whiteSpace=wrap;html=1;fillColor=#D4E1F5;container=0;" vertex="1" parent="WIyWlLk6GJQsqaUBKTNV-1">
          <mxGeometry x="260" y="120" width="160" height="60" as="geometry" />
        </mxCell>
        <mxCell id="va2_-kU2H1jiuco8N1ax-97" style="edgeStyle=orthogonalEdgeStyle;rounded=0;orthogonalLoop=1;jettySize=auto;html=1;noEdgeStyle=1;orthogonal=1;" edge="1" parent="WIyWlLk6GJQsqaUBKTNV-1" source="va2_-kU2H1jiuco8N1ax-69" target="va2_-kU2H1jiuco8N1ax-74">
          <mxGeometry relative="1" as="geometry">
            <Array as="points">
              <mxPoint x="174" y="233.75" />
              <mxPoint x="210" y="210" />
              <mxPoint x="430" y="210" />
              <mxPoint x="520" y="150" />
              <mxPoint x="730" y="150" />
              <mxPoint x="730" y="150" />
              <mxPoint x="1060" y="150" />
              <mxPoint x="1098" y="221.25" />
            </Array>
          </mxGeometry>
        </mxCell>
        <mxCell id="va2_-kU2H1jiuco8N1ax-98" style="edgeStyle=orthogonalEdgeStyle;rounded=0;orthogonalLoop=1;jettySize=auto;html=1;noEdgeStyle=1;orthogonal=1;" edge="1" parent="WIyWlLk6GJQsqaUBKTNV-1" source="va2_-kU2H1jiuco8N1ax-69" target="va2_-kU2H1jiuco8N1ax-77">
          <mxGeometry relative="1" as="geometry">
            <Array as="points">
              <mxPoint x="174" y="246.25" />
              <mxPoint x="248" y="270" />
            </Array>
          </mxGeometry>
        </mxCell>
        <mxCell id="va2_-kU2H1jiuco8N1ax-100" style="edgeStyle=orthogonalEdgeStyle;rounded=0;orthogonalLoop=1;jettySize=auto;html=1;shape=flexArrow;noEdgeStyle=1;orthogonal=1;" edge="1" parent="WIyWlLk6GJQsqaUBKTNV-1" source="va2_-kU2H1jiuco8N1ax-69" target="va2_-kU2H1jiuco8N1ax-3">
          <mxGeometry relative="1" as="geometry">
            <Array as="points">
              <mxPoint x="172" y="221.25" />
              <mxPoint x="180" y="150" />
              <mxPoint x="248" y="150" />
            </Array>
          </mxGeometry>
        </mxCell>
        <mxCell id="va2_-kU2H1jiuco8N1ax-69" value="Controllers" style="rounded=0;whiteSpace=wrap;html=1;fillColor=#FFCE9F;container=0;" vertex="1" parent="WIyWlLk6GJQsqaUBKTNV-1">
          <mxGeometry y="210" width="160" height="60" as="geometry" />
        </mxCell>
        <mxCell id="va2_-kU2H1jiuco8N1ax-74" value="Milepost" style="rounded=0;whiteSpace=wrap;html=1;fillColor=#D4E1F5;container=0;" vertex="1" parent="WIyWlLk6GJQsqaUBKTNV-1">
          <mxGeometry x="1110" y="210" width="160" height="60" as="geometry" />
        </mxCell>
        <mxCell id="va2_-kU2H1jiuco8N1ax-80" style="edgeStyle=orthogonalEdgeStyle;rounded=0;orthogonalLoop=1;jettySize=auto;html=1;noEdgeStyle=1;orthogonal=1;" edge="1" parent="WIyWlLk6GJQsqaUBKTNV-1" source="va2_-kU2H1jiuco8N1ax-75" target="va2_-kU2H1jiuco8N1ax-74">
          <mxGeometry relative="1" as="geometry">
            <Array as="points">
              <mxPoint x="692" y="197.5" />
              <mxPoint x="730" y="210" />
              <mxPoint x="1060" y="210" />
              <mxPoint x="1096" y="233.75" />
            </Array>
          </mxGeometry>
        </mxCell>
        <mxCell id="va2_-kU2H1jiuco8N1ax-90" style="edgeStyle=orthogonalEdgeStyle;rounded=0;orthogonalLoop=1;jettySize=auto;html=1;shape=flexArrow;noEdgeStyle=1;orthogonal=1;" edge="1" parent="WIyWlLk6GJQsqaUBKTNV-1" source="va2_-kU2H1jiuco8N1ax-75" target="va2_-kU2H1jiuco8N1ax-76">
          <mxGeometry relative="1" as="geometry">
            <Array as="points">
              <mxPoint x="692" y="222.5" />
              <mxPoint x="720" y="270" />
              <mxPoint x="768" y="270" />
            </Array>
          </mxGeometry>
        </mxCell>
        <mxCell id="va2_-kU2H1jiuco8N1ax-75" value="MilepostRepository" style="rounded=0;whiteSpace=wrap;html=1;fillColor=#D4E1F5;container=0;" vertex="1" parent="WIyWlLk6GJQsqaUBKTNV-1">
          <mxGeometry x="520" y="180" width="160" height="60" as="geometry" />
        </mxCell>
        <mxCell id="va2_-kU2H1jiuco8N1ax-89" style="edgeStyle=orthogonalEdgeStyle;rounded=0;orthogonalLoop=1;jettySize=auto;html=1;noEdgeStyle=1;orthogonal=1;" edge="1" parent="WIyWlLk6GJQsqaUBKTNV-1" source="va2_-kU2H1jiuco8N1ax-76" target="va2_-kU2H1jiuco8N1ax-74">
          <mxGeometry relative="1" as="geometry">
            <Array as="points">
              <mxPoint x="1022" y="270" />
              <mxPoint x="1096" y="246.25" />
            </Array>
          </mxGeometry>
        </mxCell>
        <mxCell id="va2_-kU2H1jiuco8N1ax-76" value="MilepostRepositoryImplementation" style="rounded=0;whiteSpace=wrap;html=1;fillColor=#D4E1F5;container=0;" vertex="1" parent="WIyWlLk6GJQsqaUBKTNV-1">
          <mxGeometry x="780" y="240" width="230" height="60" as="geometry" />
        </mxCell>
        <mxCell id="va2_-kU2H1jiuco8N1ax-95" style="edgeStyle=orthogonalEdgeStyle;rounded=0;orthogonalLoop=1;jettySize=auto;html=1;noEdgeStyle=1;orthogonal=1;" edge="1" parent="WIyWlLk6GJQsqaUBKTNV-1" source="va2_-kU2H1jiuco8N1ax-77" target="va2_-kU2H1jiuco8N1ax-75">
          <mxGeometry relative="1" as="geometry">
            <Array as="points">
              <mxPoint x="432" y="257.5" />
              <mxPoint x="508" y="210" />
            </Array>
          </mxGeometry>
        </mxCell>
        <mxCell id="va2_-kU2H1jiuco8N1ax-96" style="edgeStyle=orthogonalEdgeStyle;rounded=0;orthogonalLoop=1;jettySize=auto;html=1;noEdgeStyle=1;orthogonal=1;" edge="1" parent="WIyWlLk6GJQsqaUBKTNV-1" source="va2_-kU2H1jiuco8N1ax-77" target="va2_-kU2H1jiuco8N1ax-74">
          <mxGeometry relative="1" as="geometry">
            <Array as="points">
              <mxPoint x="432" y="282.5" />
              <mxPoint x="650" y="283" />
              <mxPoint x="730" y="330" />
              <mxPoint x="1060" y="330" />
              <mxPoint x="1098" y="258.75" />
            </Array>
          </mxGeometry>
        </mxCell>
        <mxCell id="va2_-kU2H1jiuco8N1ax-77" value="MilepostService" style="rounded=0;whiteSpace=wrap;html=1;fillColor=#D4E1F5;container=0;" vertex="1" parent="WIyWlLk6GJQsqaUBKTNV-1">
          <mxGeometry x="260" y="240" width="160" height="60" as="geometry" />
        </mxCell>
        <mxCell id="va2_-kU2H1jiuco8N1ax-102" value="cv-data-controller" style="swimlane;whiteSpace=wrap;html=1;" vertex="1" parent="WIyWlLk6GJQsqaUBKTNV-1">
          <mxGeometry x="-30" y="80" width="1330" height="340" as="geometry" />
        </mxCell>
        <mxCell id="va2_-kU2H1jiuco8N1ax-103" value="extend" style="text;html=1;align=center;verticalAlign=middle;whiteSpace=wrap;rounded=0;" vertex="1" parent="va2_-kU2H1jiuco8N1ax-102">
          <mxGeometry x="150" y="60" width="60" height="30" as="geometry" />
        </mxCell>
        <mxCell id="va2_-kU2H1jiuco8N1ax-104" value="implements" style="text;html=1;align=center;verticalAlign=middle;whiteSpace=wrap;rounded=0;" vertex="1" parent="va2_-kU2H1jiuco8N1ax-102">
          <mxGeometry x="740" y="140" width="60" height="30" as="geometry" />
        </mxCell>
        <mxCell id="va2_-kU2H1jiuco8N1ax-107" value="uses" style="text;html=1;align=center;verticalAlign=middle;whiteSpace=wrap;rounded=0;" vertex="1" parent="va2_-kU2H1jiuco8N1ax-102">
          <mxGeometry x="900" y="100" width="60" height="30" as="geometry" />
        </mxCell>
        <mxCell id="va2_-kU2H1jiuco8N1ax-108" value="uses" style="text;html=1;align=center;verticalAlign=middle;whiteSpace=wrap;rounded=0;" vertex="1" parent="va2_-kU2H1jiuco8N1ax-102">
          <mxGeometry x="730" y="40" width="60" height="30" as="geometry" />
        </mxCell>
        <mxCell id="va2_-kU2H1jiuco8N1ax-110" value="uses" style="text;html=1;align=center;verticalAlign=middle;whiteSpace=wrap;rounded=0;" vertex="1" parent="va2_-kU2H1jiuco8N1ax-102">
          <mxGeometry x="230" y="155" width="60" height="30" as="geometry" />
        </mxCell>
        <mxCell id="va2_-kU2H1jiuco8N1ax-112" value="uses" style="text;html=1;align=center;verticalAlign=middle;whiteSpace=wrap;rounded=0;" vertex="1" parent="va2_-kU2H1jiuco8N1ax-102">
          <mxGeometry x="900" y="250" width="60" height="30" as="geometry" />
        </mxCell>
        <mxCell id="va2_-kU2H1jiuco8N1ax-113" value="uses" style="text;html=1;align=center;verticalAlign=middle;whiteSpace=wrap;rounded=0;" vertex="1" parent="va2_-kU2H1jiuco8N1ax-102">
          <mxGeometry x="1050" y="150" width="60" height="30" as="geometry" />
        </mxCell>
        <mxCell id="va2_-kU2H1jiuco8N1ax-114" value="uses" style="text;html=1;align=center;verticalAlign=middle;whiteSpace=wrap;rounded=0;" vertex="1" parent="va2_-kU2H1jiuco8N1ax-102">
          <mxGeometry x="500" y="140" width="60" height="30" as="geometry" />
        </mxCell>
        <mxCell id="va2_-kU2H1jiuco8N1ax-73" value="DataControllerConfigProperties" style="rounded=0;whiteSpace=wrap;html=1;fillColor=#D4E1F5;container=0;" vertex="1" parent="va2_-kU2H1jiuco8N1ax-102">
          <mxGeometry x="20" y="260" width="190" height="60" as="geometry" />
        </mxCell>
      </root>
    </mxGraphModel>
  </diagram>
</mxfile>
